<svg width="127" height="127" viewBox="0 0 127 127" fill="none" xmlns="http://www.w3.org/2000/svg">
<path d="M98.5688 17.8023C79.3307 -7.71758 24.7573 11.3242 20.6349 9.55745C20.6349 9.55745 20.0459 13.2873 22.2053 15.643C19.457 17.606 16.1198 14.2688 16.1198 14.2688C16.1198 14.2688 12.5863 22.5137 16.3161 27.6177C10.4269 35.2737 17.494 75.124 17.494 75.124H107.599C107.599 75.124 118.396 43.9112 106.028 22.71C103.476 17.8023 100.728 20.747 98.5688 17.8023Z" fill="#DBB471"/>
<path d="M108.58 58.6344C108.188 60.7937 107.795 62.7568 107.206 63.9347C106.225 65.8977 104.065 67.0756 104.065 67.0756C104.065 67.0756 104.654 62.9531 104.458 57.0639C101.71 17.6062 90.1275 36.4517 63.4298 36.4517C36.732 36.4517 25.1499 17.6062 22.5979 57.2602C22.4016 62.9531 22.9905 67.2719 22.9905 67.2719C22.9905 67.2719 20.8311 66.094 19.8496 64.131C19.2607 62.9531 18.8681 60.9901 18.4755 58.8307C14.9419 57.8491 10.6232 58.6344 10.6232 69.0387C10.6232 75.5168 12.9789 80.6208 20.6348 81.2097C23.972 107.122 29.8613 111.245 49.2957 120.471C54.2033 122.827 57.5406 122.238 63.4298 122.238C69.319 122.238 72.6562 122.827 77.7602 120.471C97.3909 111.245 103.28 107.122 106.421 81.2097C114.077 80.6208 116.433 75.3205 116.433 69.0387C116.433 58.6344 111.918 57.8491 108.58 58.6344Z" fill="#B47D56"/>
<path d="M81.0974 96.5216C81.0974 103.196 72.2636 106.533 63.4298 106.533C54.596 106.533 45.7621 103.196 45.7621 96.5216C45.7621 96.5216 45.7621 94.7549 47.5289 94.7549H79.3307C81.0974 94.7549 81.0974 96.5216 81.0974 96.5216Z" fill="#664E27"/>
<path d="M39.8729 56.6711C30.0576 56.6711 26.1314 60.2047 26.1314 63.7382C26.1314 67.2717 26.1314 72.3757 39.0877 72.3757C51.6514 72.3757 53.6144 70.8053 53.6144 65.505C53.6144 61.9714 49.6883 56.6711 39.8729 56.6711Z" fill="#F5F5F5"/>
<path d="M40.8544 71.3942C45.7332 71.3942 49.6883 67.4392 49.6883 62.5604C49.6883 57.6816 45.7332 53.7266 40.8544 53.7266C35.9757 53.7266 32.0206 57.6816 32.0206 62.5604C32.0206 67.4392 35.9757 71.3942 40.8544 71.3942Z" fill="#0A84A5"/>
<path d="M40.8545 65.5049C42.4807 65.5049 43.7991 64.1866 43.7991 62.5603C43.7991 60.9341 42.4807 59.6157 40.8545 59.6157C39.2282 59.6157 37.9099 60.9341 37.9099 62.5603C37.9099 64.1866 39.2282 65.5049 40.8545 65.5049Z" fill="#231F20"/>
<path d="M26.1314 63.542C26.1314 49.8005 53.6144 49.8005 53.6144 65.5051C49.6883 53.7267 30.0576 53.7267 26.1314 63.542Z" fill="#664E27"/>
<path d="M86.9866 56.6711C96.802 56.6711 100.728 60.2047 100.728 63.7382C100.728 67.2717 100.728 72.3757 87.7719 72.3757C75.2082 72.3757 73.2451 70.8053 73.2451 65.505C73.2451 61.9714 77.1713 56.6711 86.9866 56.6711Z" fill="#F5F5F5"/>
<path d="M86.0051 71.3942C90.8839 71.3942 94.8389 67.4392 94.8389 62.5604C94.8389 57.6816 90.8839 53.7266 86.0051 53.7266C81.1263 53.7266 77.1713 57.6816 77.1713 62.5604C77.1713 67.4392 81.1263 71.3942 86.0051 71.3942Z" fill="#0A84A5"/>
<path d="M83.0605 62.5603C83.0605 64.1308 84.4346 65.5049 86.0051 65.5049C87.5755 65.5049 88.9497 64.1308 88.9497 62.5603C88.9497 60.9899 87.5755 59.6157 86.0051 59.6157C84.4346 59.6157 83.0605 60.9899 83.0605 62.5603Z" fill="#231F20"/>
<path d="M100.728 63.542C100.728 49.8005 73.2451 49.8005 73.2451 65.5051C77.1713 53.7267 96.802 53.7267 100.728 63.542Z" fill="#664E27"/>
<path d="M63.4296 88.8655C55.1847 88.8655 51.0623 82.9763 55.1847 82.9763H71.6745C75.797 82.9763 71.6745 88.8655 63.4296 88.8655Z" fill="#935E3E"/>
</svg>
