<svg width="122" height="121" viewBox="0 0 122 121" fill="none" xmlns="http://www.w3.org/2000/svg">
<path d="M103.609 105.686H33.4619C27.9504 105.686 23.4409 101.177 23.4409 95.6651V45.5601C23.4409 40.0485 27.9504 35.5391 33.4619 35.5391H103.609C109.121 35.5391 113.63 40.0485 113.63 45.5601V95.6651C113.63 101.177 109.121 105.686 103.609 105.686Z" fill="#E65100"/>
<path d="M88.5775 90.6549H18.4304C12.9188 90.6549 8.40939 86.1454 8.40939 80.6339V30.5288C8.40939 25.0173 12.9188 20.5078 18.4304 20.5078H88.5775C94.089 20.5078 98.5985 25.0173 98.5985 30.5288V80.6339C98.5985 86.1454 94.089 90.6549 88.5775 90.6549Z" fill="#F57C00"/>
<path d="M76.0512 48.0657C80.2021 48.0657 83.567 44.7008 83.567 40.5499C83.567 36.3991 80.2021 33.0342 76.0512 33.0342C71.9004 33.0342 68.5355 36.3991 68.5355 40.5499C68.5355 44.7008 71.9004 48.0657 76.0512 48.0657Z" fill="#FFF9C4"/>
<path d="M43.4829 45.3096L20.9356 78.1284H66.0302L43.4829 45.3096Z" fill="#942A09"/>
<path d="M71.0407 59.3394L56.0092 78.1287H86.0722L71.0407 59.3394Z" fill="#BF360C"/>
</svg>
