<svg width="122" height="122" viewBox="0 0 122 122" fill="none" xmlns="http://www.w3.org/2000/svg">
<g clip-path="url(#clip0_11:360)">
<path d="M5.49597 0.219482H116.954C118.239 0.219482 119.471 0.73004 120.38 1.63884C121.289 2.54764 121.8 3.78023 121.8 5.06546V112.889C121.8 114.174 121.289 115.406 120.38 116.315C119.471 117.224 118.239 117.735 116.954 117.735H5.49597C4.21074 117.735 2.97815 117.224 2.06935 116.315C1.16055 115.406 0.649994 114.174 0.649994 112.889V5.06546C0.649994 3.78023 1.16055 2.54764 2.06935 1.63884C2.97815 0.73004 4.21074 0.219482 5.49597 0.219482V0.219482Z" fill="#EBEDEE"/>
<path d="M15.188 8.69995H107.262C108.547 8.69995 109.78 9.21051 110.688 10.1193C111.597 11.0281 112.108 12.2607 112.108 13.5459V31.7184C112.108 33.0036 111.597 34.2362 110.688 35.145C109.78 36.0538 108.547 36.5643 107.262 36.5643H15.188C13.9028 36.5643 12.6702 36.0538 11.7614 35.145C10.8526 34.2362 10.3421 33.0036 10.3421 31.7184V13.5459C10.3421 12.2607 10.8526 11.0281 11.7614 10.1193C12.6702 9.21051 13.9028 8.69995 15.188 8.69995Z" fill="#BDC3C7"/>
<path d="M15.188 42.6218H35.7835C37.0687 42.6218 38.3013 43.1324 39.2101 44.0412C40.1189 44.95 40.6294 46.1826 40.6294 47.4678V65.6402C40.6294 66.9255 40.1189 68.1581 39.2101 69.0669C38.3013 69.9757 37.0687 70.4862 35.7835 70.4862H15.188C13.9028 70.4862 12.6702 69.9757 11.7614 69.0669C10.8526 68.1581 10.3421 66.9255 10.3421 65.6402V47.4678C10.3421 46.1826 10.8526 44.95 11.7614 44.0412C12.6702 43.1324 13.9028 42.6218 15.188 42.6218ZM51.5329 42.6218H72.1283C73.4136 42.6218 74.6461 43.1324 75.5549 44.0412C76.4637 44.95 76.9743 46.1826 76.9743 47.4678V65.6402C76.9743 66.9255 76.4637 68.1581 75.5549 69.0669C74.6461 69.9757 73.4136 70.4862 72.1283 70.4862H51.5329C50.2477 70.4862 49.0151 69.9757 48.1063 69.0669C47.1975 68.1581 46.6869 66.9255 46.6869 65.6402V47.4678C46.6869 46.1826 47.1975 44.95 48.1063 44.0412C49.0151 43.1324 50.2477 42.6218 51.5329 42.6218ZM15.188 78.9667H35.7835C37.0687 78.9667 38.3013 79.4772 39.2101 80.386C40.1189 81.2948 40.6294 82.5274 40.6294 83.8127V101.985C40.6294 103.27 40.1189 104.503 39.2101 105.412C38.3013 106.321 37.0687 106.831 35.7835 106.831H15.188C13.9028 106.831 12.6702 106.321 11.7614 105.412C10.8526 104.503 10.3421 103.27 10.3421 101.985V83.8127C10.3421 82.5274 10.8526 81.2948 11.7614 80.386C12.6702 79.4772 13.9028 78.9667 15.188 78.9667ZM51.5329 78.9667H72.1283C73.4136 78.9667 74.6461 79.4772 75.5549 80.386C76.4637 81.2948 76.9743 82.5274 76.9743 83.8127V101.985C76.9743 103.27 76.4637 104.503 75.5549 105.412C74.6461 106.321 73.4136 106.831 72.1283 106.831H51.5329C50.2477 106.831 49.0151 106.321 48.1063 105.412C47.1975 104.503 46.6869 103.27 46.6869 101.985V83.8127C46.6869 82.5274 47.1975 81.2948 48.1063 80.386C49.0151 79.4772 50.2477 78.9667 51.5329 78.9667Z" fill="#3498DB"/>
<path d="M87.8776 78.9666H107.262C108.547 78.9666 109.779 79.4771 110.688 80.3859C111.597 81.2947 112.108 82.5273 112.108 83.8125V101.985C112.108 103.27 111.597 104.503 110.688 105.412C109.779 106.32 108.547 106.831 107.262 106.831H87.8776C86.5924 106.831 85.3598 106.32 84.451 105.412C83.5422 104.503 83.0316 103.27 83.0316 101.985V83.8125C83.0316 82.5273 83.5422 81.2947 84.451 80.3859C85.3598 79.4771 86.5924 78.9666 87.8776 78.9666Z" fill="#34495E"/>
<path d="M103.021 94.7162H92.1178C91.6359 94.7162 91.1736 94.9077 90.8328 95.2485C90.492 95.5893 90.3006 96.0515 90.3006 96.5335C90.3006 97.0154 90.492 97.4777 90.8328 97.8185C91.1736 98.1593 91.6359 98.3507 92.1178 98.3507H103.021C103.503 98.3507 103.965 98.1593 104.306 97.8185C104.647 97.4777 104.839 97.0154 104.839 96.5335C104.839 96.0515 104.647 95.5893 104.306 95.2485C103.965 94.9077 103.503 94.7162 103.021 94.7162ZM92.1178 91.0818H103.021C103.503 91.0818 103.965 90.8903 104.306 90.5495C104.647 90.2087 104.839 89.7465 104.839 89.2645C104.839 88.7825 104.647 88.3203 104.306 87.9795C103.965 87.6387 103.503 87.4473 103.021 87.4473H92.1178C91.6359 87.4473 91.1736 87.6387 90.8328 87.9795C90.492 88.3203 90.3006 88.7825 90.3006 89.2645C90.3006 89.7465 90.492 90.2087 90.8328 90.5495C91.1736 90.8903 91.6359 91.0818 92.1178 91.0818Z" fill="#CBCCCE"/>
<path d="M87.8776 42.6218H107.262C108.547 42.6218 109.779 43.1324 110.688 44.0412C111.597 44.95 112.108 46.1826 112.108 47.4678V65.6402C112.108 66.9255 111.597 68.1581 110.688 69.0669C109.779 69.9757 108.547 70.4862 107.262 70.4862H87.8776C86.5924 70.4862 85.3598 69.9757 84.451 69.0669C83.5422 68.1581 83.0316 66.9255 83.0316 65.6402V47.4678C83.0316 46.1826 83.5422 44.95 84.451 44.0412C85.3598 43.1324 86.5924 42.6218 87.8776 42.6218Z" fill="#E74C3C"/>
<path d="M91.511 56.5542C91.511 52.8809 94.8814 49.8909 99.0223 49.8909H100.827C101.705 49.8909 102.416 50.9764 102.416 51.753C102.416 52.5296 101.705 53.4636 100.827 53.4636H99.0223C96.6296 53.4636 95.1395 54.4328 95.1395 56.5542C95.1395 58.6755 96.6296 59.5684 99.0223 59.5684H100.827C101.705 59.5684 102.491 60.5775 102.491 61.3553C102.491 62.1343 101.705 63.2174 100.827 63.2174H99.0223C94.8814 63.2174 91.511 60.2286 91.511 56.5542ZM31.5432 54.7369H27.303V50.4967C27.303 50.0147 27.1115 49.5525 26.7707 49.2117C26.4299 48.8709 25.9677 48.6794 25.4857 48.6794C25.0038 48.6794 24.5416 48.8709 24.2008 49.2117C23.86 49.5525 23.6685 50.0147 23.6685 50.4967V54.7369H19.4283C18.9463 54.7369 18.4841 54.9284 18.1433 55.2692C17.8025 55.61 17.611 56.0722 17.611 56.5542C17.611 57.0361 17.8025 57.4983 18.1433 57.8391C18.4841 58.1799 18.9463 58.3714 19.4283 58.3714H23.6685V62.6116C23.6685 63.0936 23.86 63.5558 24.2008 63.8966C24.5416 64.2374 25.0038 64.4289 25.4857 64.4289C25.9677 64.4289 26.4299 64.2374 26.7707 63.8966C27.1115 63.5558 27.303 63.0936 27.303 62.6116V58.3714H31.5432C32.0252 58.3714 32.4874 58.1799 32.8282 57.8391C33.169 57.4983 33.3605 57.0361 33.3605 56.5542C33.3605 56.0722 33.169 55.61 32.8282 55.2692C32.4874 54.9284 32.0252 54.7369 31.5432 54.7369ZM31.5432 91.0818H19.4283C18.9463 91.0818 18.4841 91.2732 18.1433 91.614C17.8025 91.9548 17.611 92.4171 17.611 92.899C17.611 93.381 17.8025 93.8432 18.1433 94.184C18.4841 94.5248 18.9463 94.7163 19.4283 94.7163H31.5432C32.0252 94.7163 32.4874 94.5248 32.8282 94.184C33.169 93.8432 33.3605 93.381 33.3605 92.899C33.3605 92.4171 33.169 91.9548 32.8282 91.614C32.4874 91.2732 32.0252 91.0818 31.5432 91.0818ZM67.8881 91.0818H55.7731C55.2912 91.0818 54.8289 91.2732 54.4881 91.614C54.1473 91.9548 53.9559 92.4171 53.9559 92.899C53.9559 93.381 54.1473 93.8432 54.4881 94.184C54.8289 94.5248 55.2912 94.7163 55.7731 94.7163H67.8881C68.37 94.7163 68.8323 94.5248 69.1731 94.184C69.5139 93.8432 69.7053 93.381 69.7053 92.899C69.7053 92.4171 69.5139 91.9548 69.1731 91.614C68.8323 91.2732 68.37 91.0818 67.8881 91.0818ZM61.8306 88.6588C62.3127 88.6586 62.775 88.4669 63.1158 88.1259C63.4566 87.7849 63.648 87.3225 63.6478 86.8403C63.6477 86.3582 63.456 85.8959 63.115 85.5551C62.774 85.2143 62.3115 85.0229 61.8294 85.0231C61.5907 85.0232 61.3543 85.0703 61.1338 85.1617C60.9132 85.2531 60.7129 85.3871 60.5442 85.556C60.3754 85.7248 60.2416 85.9253 60.1503 86.1458C60.059 86.3664 60.0121 86.6028 60.0121 86.8415C60.0122 87.0803 60.0593 87.3166 60.1507 87.5372C60.2422 87.7577 60.3761 87.958 60.545 88.1268C60.7139 88.2955 60.9143 88.4294 61.1349 88.5206C61.3555 88.6119 61.5919 88.6589 61.8306 88.6588ZM61.8306 97.1393C61.5919 97.1393 61.3555 97.1864 61.135 97.2779C60.9145 97.3693 60.7141 97.5033 60.5454 97.6721C60.3766 97.841 60.2428 98.0414 60.1515 98.262C60.0602 98.4826 60.0133 98.719 60.0134 98.9577C60.0134 99.1964 60.0605 99.4328 60.152 99.6533C60.2434 99.8738 60.3774 100.074 60.5462 100.243C60.7151 100.412 60.9155 100.546 61.1361 100.637C61.3567 100.728 61.5931 100.775 61.8318 100.775C62.3139 100.775 62.7762 100.583 63.117 100.242C63.4578 99.9011 63.6492 99.4386 63.6491 98.9565C63.6489 98.4744 63.4572 98.0121 63.1162 97.6713C62.7752 97.3305 62.3127 97.1391 61.8306 97.1393ZM67.9123 59.8349L64.611 56.5336L67.8784 53.2674L67.8772 53.2662H67.8784C68.0623 53.0822 68.2082 52.8639 68.3077 52.6236C68.4072 52.3833 68.4585 52.1258 68.4585 51.8657C68.4585 51.6056 68.4072 51.348 68.3077 51.1077C68.2082 50.8674 68.0623 50.6491 67.8784 50.4652C67.6945 50.2813 67.4761 50.1354 67.2358 50.0358C66.9955 49.9363 66.738 49.8851 66.4779 49.8851C66.2178 49.8851 65.9602 49.9363 65.72 50.0358C65.4797 50.1354 65.2613 50.2813 65.0774 50.4652L61.81 53.7326L58.5426 50.4652C58.3587 50.2813 58.1403 50.1354 57.9 50.0358C57.6598 49.9363 57.4022 49.8851 57.1421 49.8851C56.882 49.8851 56.6245 49.9363 56.3842 50.0358C56.1439 50.1354 55.9255 50.2813 55.7416 50.4652C55.5577 50.6491 55.4118 50.8674 55.3123 51.1077C55.2127 51.348 55.1615 51.6056 55.1615 51.8657C55.1615 52.1258 55.2127 52.3833 55.3123 52.6236C55.4118 52.8639 55.5577 53.0822 55.7416 53.2662V53.2674L59.009 56.5336L55.7428 59.7998L55.7416 59.801C55.3931 60.1769 55.2037 60.6734 55.2134 61.186C55.2231 61.6985 55.4311 62.1874 55.7936 62.55C56.1561 62.9125 56.645 63.1204 57.1576 63.1301C57.6702 63.1398 58.1666 62.9505 58.5426 62.6019L61.81 59.3345L65.1101 62.6359L65.115 62.6334C65.4882 62.989 65.9857 63.1845 66.5012 63.1782C67.0166 63.1719 67.5092 62.9642 67.8736 62.5996C68.2381 62.235 68.4455 61.7424 68.4516 61.2269C68.4577 60.7115 68.262 60.2141 67.9062 59.841L67.9123 59.8349Z" fill="#CBCCCE"/>
<path d="M103.627 24.4497V29.2957L105.519 30.5071L107.262 29.2957V24.4497L105.519 23.2382L103.627 24.4497ZM105.519 14.7589L103.627 15.9692V20.8152L105.519 22.0267L107.262 20.8152V15.9692L105.519 14.7589ZM96.3582 24.4497L94.616 23.2382L92.7237 24.4497V29.2957L94.616 30.5071L96.3582 29.2957V24.4497ZM96.3582 20.8152V15.9692L94.616 14.7589L92.7237 15.9692V20.8152L94.616 22.0267L96.3582 20.8152ZM102.416 15.9692L104.839 14.2271L102.416 12.3347H97.5697L95.1467 14.2271L97.5697 15.9692H102.416ZM97.5697 29.2957L95.1467 31.188L97.5697 32.9301H102.416L104.839 31.188L102.416 29.2957H97.5697Z" fill="#7F8C8D"/>
<path d="M107.262 8.69995H15.188C13.9028 8.69995 12.6702 9.21051 11.7614 10.1193C10.8526 11.0281 10.3421 12.2607 10.3421 13.5459V15.9689C10.3421 14.6837 10.8526 13.4511 11.7614 12.5423C12.6702 11.6335 13.9028 11.1229 15.188 11.1229H107.262C108.547 11.1229 109.78 11.6335 110.688 12.5423C111.597 13.4511 112.108 14.6837 112.108 15.9689V13.5459C112.108 12.2607 111.597 11.0281 110.688 10.1193C109.78 9.21051 108.547 8.69995 107.262 8.69995Z" fill="#95A5A6"/>
<path d="M107.262 70.4861H87.8776C86.5924 70.4861 85.3598 69.9756 84.451 69.0668C83.5422 68.158 83.0316 66.9254 83.0316 65.6401V68.0631C83.0316 69.3484 83.5422 70.581 84.451 71.4898C85.3598 72.3985 86.5924 72.9091 87.8776 72.9091H107.262C108.547 72.9091 109.779 72.3985 110.688 71.4898C111.597 70.581 112.108 69.3484 112.108 68.0631V65.6401C112.108 66.9254 111.597 68.158 110.688 69.0668C109.779 69.9756 108.547 70.4861 107.262 70.4861Z" fill="#C0392C"/>
<path d="M107.262 106.831H87.8776C86.5924 106.831 85.3598 106.32 84.451 105.411C83.5422 104.503 83.0316 103.27 83.0316 101.985V104.408C83.0316 105.693 83.5422 106.926 84.451 107.834C85.3598 108.743 86.5924 109.254 87.8776 109.254H107.262C108.547 109.254 109.779 108.743 110.688 107.834C111.597 106.926 112.108 105.693 112.108 104.408V101.985C112.108 103.27 111.597 104.503 110.688 105.411C109.779 106.32 108.547 106.831 107.262 106.831Z" fill="#2C3E50"/>
<path d="M72.1283 70.4861H51.5329C50.2477 70.4861 49.0151 69.9756 48.1063 69.0668C47.1975 68.158 46.6869 66.9254 46.6869 65.6401V68.0631C46.6869 69.3484 47.1975 70.581 48.1063 71.4898C49.0151 72.3985 50.2477 72.9091 51.5329 72.9091H72.1283C73.4136 72.9091 74.6461 72.3985 75.5549 71.4898C76.4637 70.581 76.9743 69.3484 76.9743 68.0631V65.6401C76.9743 66.9254 76.4637 68.158 75.5549 69.0668C74.6461 69.9756 73.4136 70.4861 72.1283 70.4861ZM72.1283 106.831H51.5329C50.2477 106.831 49.0151 106.32 48.1063 105.412C47.1975 104.503 46.6869 103.27 46.6869 101.985V104.408C46.6869 105.693 47.1975 106.926 48.1063 107.835C49.0151 108.743 50.2477 109.254 51.5329 109.254H72.1283C73.4136 109.254 74.6461 108.743 75.5549 107.835C76.4637 106.926 76.9743 105.693 76.9743 104.408V101.985C76.9743 103.27 76.4637 104.503 75.5549 105.412C74.6461 106.32 73.4136 106.831 72.1283 106.831ZM35.7835 106.831H15.188C13.9028 106.831 12.6702 106.32 11.7614 105.412C10.8526 104.503 10.3421 103.27 10.3421 101.985V104.408C10.3421 105.693 10.8526 106.926 11.7614 107.835C12.6702 108.743 13.9028 109.254 15.188 109.254H35.7835C37.0687 109.254 38.3013 108.743 39.2101 107.835C40.1189 106.926 40.6294 105.693 40.6294 104.408V101.985C40.6294 103.27 40.1189 104.503 39.2101 105.412C38.3013 106.32 37.0687 106.831 35.7835 106.831ZM35.7835 70.4861H15.188C13.9028 70.4861 12.6702 69.9756 11.7614 69.0668C10.8526 68.158 10.3421 66.9254 10.3421 65.6401V68.0631C10.3421 69.3484 10.8526 70.581 11.7614 71.4898C12.6702 72.3985 13.9028 72.9091 15.188 72.9091H35.7835C37.0687 72.9091 38.3013 72.3985 39.2101 71.4898C40.1189 70.581 40.6294 69.3484 40.6294 68.0631V65.6401C40.6294 66.9254 40.1189 68.158 39.2101 69.0668C38.3013 69.9756 37.0687 70.4861 35.7835 70.4861Z" fill="#2980B9"/>
<path d="M116.954 117.735H5.49597C4.21074 117.735 2.97815 117.224 2.06935 116.315C1.16055 115.407 0.649994 114.174 0.649994 112.889V116.523C0.649994 117.808 1.16055 119.041 2.06935 119.95C2.97815 120.859 4.21074 121.369 5.49597 121.369H116.954C118.239 121.369 119.471 120.859 120.38 119.95C121.289 119.041 121.8 117.808 121.8 116.523V112.889C121.8 114.174 121.289 115.407 120.38 116.315C119.471 117.224 118.239 117.735 116.954 117.735Z" fill="#BDC3C7"/>
</g>
<defs>
<clipPath id="clip0_11:360">
<rect width="121.15" height="121.15" fill="white" transform="translate(0.649994 0.219482)"/>
</clipPath>
</defs>
</svg>
