<svg width="153" height="152" viewBox="0 0 153 152" fill="none" xmlns="http://www.w3.org/2000/svg">
<path d="M16.5385 60.2524H136.604V120.285H16.5385V60.2524Z" fill="#CFD8DC"/>
<path d="M16.5385 120.285H136.604V132.924H16.5385V120.285Z" fill="#B0BEC5"/>
<path d="M86.0499 76.0505H123.965V132.924H86.0499V76.0505Z" fill="#455A64"/>
<path d="M29.1769 76.0505H73.4114V110.806H29.1769V76.0505Z" fill="#E3F2FD"/>
<path d="M32.3365 79.21H70.2518V107.646H32.3365V79.21Z" fill="#1E88E5"/>
<path d="M116.066 106.067C115.118 106.067 114.486 106.699 114.486 107.647V113.966C114.486 114.914 115.118 115.546 116.066 115.546C117.014 115.546 117.646 114.914 117.646 113.966V107.647C117.646 106.699 117.014 106.067 116.066 106.067Z" fill="#90A4AE"/>
<path d="M76.5711 69.7313C81.8061 69.7313 86.0499 65.4875 86.0499 60.2525C86.0499 55.0175 81.8061 50.7737 76.5711 50.7737C71.336 50.7737 67.0922 55.0175 67.0922 60.2525C67.0922 65.4875 71.336 69.7313 76.5711 69.7313Z" fill="#558B2F"/>
<path d="M114.486 69.7313C119.721 69.7313 123.965 65.4875 123.965 60.2525C123.965 55.0175 119.721 50.7737 114.486 50.7737C109.251 50.7737 105.008 55.0175 105.008 60.2525C105.008 65.4875 109.251 69.7313 114.486 69.7313Z" fill="#558B2F"/>
<path d="M38.6557 69.7313C43.8908 69.7313 48.1346 65.4875 48.1346 60.2525C48.1346 55.0175 43.8908 50.7737 38.6557 50.7737C33.4207 50.7737 29.1769 55.0175 29.1769 60.2525C29.1769 65.4875 33.4207 69.7313 38.6557 69.7313Z" fill="#558B2F"/>
<path d="M127.125 19.1775H26.0173C22.5417 19.1775 19.6981 22.0211 19.6981 25.4967V34.9755H133.444V25.4967C133.444 22.0211 130.6 19.1775 127.125 19.1775Z" fill="#7CB342"/>
<path d="M67.0922 34.9758H86.0499V60.2527H67.0922V34.9758Z" fill="#7CB342"/>
<path d="M117.646 34.9758H101.848L105.008 60.2527H123.965L117.646 34.9758Z" fill="#7CB342"/>
<path d="M35.4961 34.9758H51.2942L48.1346 60.2527H29.1769L35.4961 34.9758Z" fill="#7CB342"/>
<path d="M95.5287 69.7313C100.764 69.7313 105.007 65.4875 105.007 60.2525C105.007 55.0175 100.764 50.7737 95.5287 50.7737C90.2937 50.7737 86.0498 55.0175 86.0498 60.2525C86.0498 65.4875 90.2937 69.7313 95.5287 69.7313Z" fill="#FFA000"/>
<path d="M142.923 60.2525C142.923 65.6238 138.815 69.7313 133.444 69.7313C128.073 69.7313 123.965 65.6238 123.965 60.2525C123.965 54.8812 128.073 50.7737 133.444 50.7737L142.923 60.2525Z" fill="#FFA000"/>
<path d="M57.6134 69.7313C62.8484 69.7313 67.0922 65.4875 67.0922 60.2525C67.0922 55.0175 62.8484 50.7737 57.6134 50.7737C52.3784 50.7737 48.1346 55.0175 48.1346 60.2525C48.1346 65.4875 52.3784 69.7313 57.6134 69.7313Z" fill="#FFA000"/>
<path d="M10.2192 60.2525C10.2192 65.6238 14.3267 69.7313 19.6981 69.7313C25.0694 69.7313 29.1769 65.6238 29.1769 60.2525C29.1769 54.8812 25.0694 50.7737 19.6981 50.7737L10.2192 60.2525Z" fill="#FFA000"/>
<path d="M101.848 34.9756H86.0498V60.2525H105.007L101.848 34.9756Z" fill="#FFC107"/>
<path d="M133.444 34.9756H117.646L123.965 60.2525H142.923L133.444 34.9756Z" fill="#FFC107"/>
<path d="M51.2942 34.9756H67.0922V60.2525H48.1346L51.2942 34.9756Z" fill="#FFC107"/>
<path d="M19.6981 34.9758H35.4961L29.1769 60.2527H10.2192L19.6981 34.9758Z" fill="#FFC107"/>
</svg>
