<svg width="123" height="122" viewBox="0 0 123 122" fill="none" xmlns="http://www.w3.org/2000/svg">
<path d="M53.6945 52.4971H6.82291V112.382L6.83852 112.383C7.06473 115.948 10.0267 118.771 13.6492 118.771C16.9396 118.771 19.6856 116.442 20.3313 113.344L53.6945 115.719V52.4971Z" fill="#96A9B2"/>
<path d="M113.232 22.1037H112.909L101.172 11.9664V17.4657L101.175 22.1037H99.8709L96.5672 10.5318V5.40635C96.5672 4.8632 96.3515 4.34229 95.9674 3.95823C95.5833 3.57416 95.0624 3.3584 94.5193 3.3584H20.439L20.4797 111.944L20.4752 111.949C20.4728 115.717 17.4176 118.77 13.6491 118.77H108.453C112.223 118.77 115.28 115.714 115.28 111.944V24.1516C115.28 23.6085 115.064 23.0877 114.68 22.7036C114.296 22.3195 113.775 22.1037 113.232 22.1037Z" fill="#E5E4DF"/>
<path d="M102.964 48.098H32.6469V46.05H102.964V48.098ZM102.964 108.812H32.6469V110.86H102.964V108.812ZM42.8864 13.2725H32.6471V15.3204H42.8864V13.2725Z" fill="#96A9B2"/>
<path d="M69.6444 70.9282H32.6469V66.8325H69.6444V70.9282ZM69.6583 77.0718H32.6609V81.1674H69.6583V77.0718ZM69.6583 87.311H32.6609V91.4067H69.6583V87.311ZM69.6583 97.5503H32.6609V101.646H69.6583V97.5503ZM102.978 97.5503H75.8022V101.646H102.978V97.5503Z" fill="#BFBCAF"/>
<path d="M89.9871 22.2467V30.5802H89.9727C89.8986 31.6436 89.0217 32.4859 87.9394 32.4859H34.6951C33.6131 32.4859 32.7359 31.6436 32.6616 30.5802H32.6472V22.2467C32.6472 21.7035 32.8629 21.1826 33.247 20.7986C33.6311 20.4145 34.152 20.1987 34.6951 20.1987H87.9396C88.2085 20.1987 88.4748 20.2517 88.7233 20.3546C88.9717 20.4576 89.1974 20.6084 89.3876 20.7986C89.5777 20.9888 89.7285 21.2145 89.8314 21.463C89.9342 21.7115 89.9871 21.9778 89.9871 22.2467ZM34.6468 60.6889H67.6589C67.9215 60.689 68.1816 60.6373 68.4242 60.5368C68.6668 60.4363 68.8873 60.289 69.073 60.1033C69.2586 59.9176 69.4059 59.6972 69.5064 59.4545C69.6069 59.2119 69.6586 58.9519 69.6586 58.6893V54.4973C69.6586 54.2347 69.6069 53.9746 69.5064 53.732C69.4059 53.4894 69.2586 53.2689 69.073 53.0832C68.8873 52.8975 68.6668 52.7503 68.4242 52.6498C68.1816 52.5493 67.9215 52.4976 67.6589 52.4976H34.6468C34.3842 52.4976 34.1242 52.5493 33.8816 52.6498C33.6389 52.7503 33.4185 52.8975 33.2328 53.0832C33.0471 53.2689 32.8998 53.4894 32.7993 53.732C32.6988 53.9746 32.6471 54.2347 32.6472 54.4973V58.6893C32.6471 58.9519 32.6988 59.2119 32.7993 59.4545C32.8998 59.6972 33.0471 59.9176 33.2328 60.1033C33.4185 60.289 33.6389 60.4363 33.8816 60.5368C34.1242 60.6373 34.3842 60.689 34.6468 60.6889ZM102.978 54.5449C102.978 54.0018 102.762 53.4811 102.378 53.0972C101.994 52.7133 101.474 52.4976 100.931 52.4976L100.927 52.4979L100.927 52.4976H77.8449L77.8447 52.4979C77.3027 52.4993 76.7833 52.7156 76.4005 53.0993C76.0177 53.483 75.8026 54.0028 75.8024 54.5449V89.359C75.8024 89.9011 76.0174 90.4211 76.4003 90.805C76.7831 91.1888 77.3026 91.4051 77.8447 91.4065L77.8449 91.4067H100.927L100.927 91.4065L100.931 91.4067C101.474 91.4067 101.995 91.191 102.379 90.8069C102.763 90.4228 102.978 89.9019 102.978 89.3588L102.978 54.5449Z" fill="#597B91"/>
<path d="M115.059 23.2335H96.0822V4.11084L114.648 22.6768L115.059 23.2335Z" fill="#BFBCAF"/>
</svg>
