<svg width="125" height="122" viewBox="0 0 125 122" fill="none" xmlns="http://www.w3.org/2000/svg">
<g clip-path="url(#clip0_11:393)">
<path d="M62.4303 0.568359C28.2364 0.568359 0.508911 28.291 0.508911 62.4897C0.508911 89.8481 18.2512 113.059 42.8546 121.247C45.9492 121.82 47.0855 119.903 47.0855 118.268C47.0855 116.791 47.0274 111.914 47.0013 106.74C29.7747 110.485 26.1398 99.4337 26.1398 99.4337C23.3229 92.2765 19.2642 90.373 19.2642 90.373C13.6463 86.53 19.6879 86.6093 19.6879 86.6093C25.9057 87.0457 29.1797 92.9901 29.1797 92.9901C34.7028 102.456 43.6658 99.7196 47.1992 98.1373C47.755 94.1356 49.3596 91.4034 51.1307 89.8573C37.377 88.2918 22.9189 82.9821 22.9189 59.2558C22.9189 52.4953 25.3377 46.9713 29.2987 42.6349C28.6558 41.0752 26.5365 34.7777 29.8986 26.2481C29.8986 26.2481 35.0985 24.584 46.9317 32.5955C51.8708 31.2235 57.168 30.5356 62.4303 30.5119C67.6926 30.5356 72.9941 31.2231 77.9424 32.5955C89.7611 24.5845 94.9537 26.2486 94.9537 26.2486C98.324 34.7772 96.2037 41.0757 95.5608 42.6349C99.531 46.9713 101.933 52.4953 101.933 59.2558C101.933 83.0387 87.4477 88.2754 73.6592 89.8084C75.8801 91.7299 77.8592 95.4984 77.8592 101.275C77.8592 109.56 77.7876 116.228 77.7876 118.268C77.7876 119.916 78.9022 121.847 82.0408 121.238C106.631 113.042 124.351 89.8394 124.351 62.4902C124.351 28.291 96.627 0.568359 62.4303 0.568359ZM23.7007 88.7766C23.5643 89.0842 23.08 89.1766 22.6393 88.9652C22.1899 88.7635 21.9379 88.3441 22.083 88.0354C22.2165 87.7186 22.7017 87.6301 23.1497 87.8424C23.5996 88.0446 23.856 88.4679 23.7007 88.7766ZM26.7464 91.4943C26.4513 91.7681 25.8737 91.6409 25.4819 91.2084C25.077 90.7769 25.001 90.1993 25.3005 89.9216C25.6052 89.6478 26.165 89.776 26.5708 90.2075C26.9762 90.6444 27.0546 91.2176 26.7464 91.4943ZM28.8363 94.9715C28.4565 95.2352 27.8363 94.988 27.4527 94.4375C27.0734 93.887 27.0734 93.2266 27.4609 92.962C27.8455 92.6974 28.4565 92.9354 28.845 93.4821C29.2233 94.0418 29.2233 94.7021 28.8358 94.972L28.8363 94.9715ZM32.3696 98.9988C32.0305 99.3733 31.3073 99.2726 30.7781 98.7618C30.2367 98.2626 30.0863 97.5543 30.4268 97.1799C30.7703 96.8045 31.4974 96.91 32.0305 97.4169C32.5675 97.9152 32.7319 98.6288 32.3696 98.9988ZM36.9372 100.358C36.7873 100.843 36.0907 101.064 35.3897 100.858C34.6892 100.646 34.2311 100.078 34.3724 99.5876C34.518 99.099 35.2175 98.8697 35.9238 99.0903C36.6233 99.3012 37.0829 99.8652 36.9372 100.359V100.358ZM42.1347 100.935C42.1521 101.446 41.5576 101.869 40.8213 101.879C40.0812 101.895 39.4818 101.482 39.4736 100.979C39.4736 100.464 40.0551 100.044 40.7957 100.032C41.532 100.017 42.1347 100.427 42.1347 100.935ZM47.2408 100.739C47.3288 101.238 46.8175 101.749 46.0861 101.886C45.3677 102.017 44.702 101.709 44.6106 101.215C44.5216 100.705 45.0426 100.193 45.76 100.061C46.4924 99.9334 47.1474 100.233 47.2408 100.739Z" fill="#161614"/>
</g>
<defs>
<clipPath id="clip0_11:393">
<rect width="123.842" height="120.939" fill="white" transform="translate(0.508911 0.568359)"/>
</clipPath>
</defs>
</svg>
